<svg xmlns="http://www.w3.org/2000/svg" width="50" height="50" viewBox="0 0 50 50">
  <metadata><?xpacket begin="﻿" id="W5M0MpCehiHzreSzNTczkc9d"?>
<x:xmpmeta xmlns:x="adobe:ns:meta/" x:xmptk="Adobe XMP Core 5.6-c138 79.159824, 2016/09/14-01:09:01        ">
   <rdf:RDF xmlns:rdf="http://www.w3.org/1999/02/22-rdf-syntax-ns#">
      <rdf:Description rdf:about=""/>
   </rdf:RDF>
</x:xmpmeta>
                      
<?xpacket end="w"?></metadata>
<defs>
    <style>
      .cls-1 {
        fill: #111;
        fill-rule: evenodd;
      }
    </style>
  </defs>
  <path class="cls-1" d="M14,18.569V31.427A4.571,4.571,0,0,0,18.571,36H31.429A4.571,4.571,0,0,0,36,31.427V18.569A4.571,4.571,0,0,0,31.429,14H18.571A4.571,4.571,0,0,0,14,18.569ZM27.33,31.232a6.672,6.672,0,0,1-8.564-8.564,6.314,6.314,0,0,1,3.9-3.9,6.673,6.673,0,0,1,8.564,8.564A6.312,6.312,0,0,1,27.33,31.232Zm5.3-12.886a0.86,0.86,0,0,1-1.507.407,0.552,0.552,0,0,1-.045-0.059,0.861,0.861,0,0,1-.034-0.913,0.855,0.855,0,0,1,1.167-.314,0.862,0.862,0,0,1,.428.809A0.518,0.518,0,0,1,32.634,18.346ZM25,19.653A5.345,5.345,0,1,0,30.344,25,5.35,5.35,0,0,0,25,19.653Z"/>
</svg>
